<svg xmlns="http://www.w3.org/2000/svg" width="256" height="256">
  <path fill-opacity=".016"
        d="M0 128.004v128.004l128.25-.254 128.25-.254.254-127.75L257.008 0H0v128.004m.485.496c0 70.4.119 99.053.265 63.672.146-35.38.146-92.98 0-128C.604 29.153.485 58.1.485 128.5"
        fill="#FFF" fill-rule="evenodd"/>
  <path fill-opacity=".175"
        d="M102.5 2.033C53.667 12.299 14.769 49.604 2.441 97.991.246 106.606.017 109.54.009 129.188 0 151.763.559 156.269 5.073 170c5.868 17.849 15.496 33.78 29.67 49.089 13.086 14.135 37.324 28.85 56.619 34.374C99.893 255.905 101.259 256 128 256c26.726 0 28.111-.096 36.638-2.533 12.141-3.471 31.108-13.014 41.472-20.867 22.048-16.705 39.279-41.809 46.399-67.6 1.442-5.225 3.043-10.534 3.557-11.797 1.297-3.19 1.235-48.507-.066-47.703-.55.34-1-.258-1-1.329 0-4.175-5.348-20.167-10.034-30.003-6.83-14.339-12.81-22.94-24.092-34.654C201.117 19.003 178.701 6.81 151.14 1.585c-11.96-2.267-36.814-2.038-48.64.448M.431 129.5c.001 13.2.143 18.462.316 11.693.174-6.769.173-17.569-.001-24-.174-6.431-.315-.893-.315 12.307m124.441 24.25c-1.243 1.586-1.208 1.621.378.378 1.666-1.307 2.195-2.128 1.372-2.128-.207 0-.995.787-1.75 1.75"
        fill="#FFF" fill-rule="evenodd"/>
  <path fill-opacity=".551"
        d="M112.5 1.067C63.667 7.725 23.37 40.237 7.231 86 1.765 101.499.514 109.634.544 129.5c.024 16.179.3 19.09 2.728 28.774 6.1 24.332 17.17 44.057 34.386 61.273 17.292 17.292 40.886 30.04 64.55 34.877 10.613 2.17 40.974 2.17 51.584 0C213.41 242.233 256.622 189 256.417 128 256.212 66.883 213.235 14.979 152.5 2.499c-9.705-1.994-30.433-2.736-40-1.432M58 58c-1.961 1.961-2 3.333-2 70s.039 68.039 2 70c1.961 1.961 3.333 2 70.345 2 64.942 0 68.427-.091 70-1.829 1.506-1.664 1.655-7.969 1.655-70 0-66.838-.039-68.21-2-70.171-1.961-1.961-3.333-2-70-2s-68.039.039-70 2m7 70v63h126V65H65v63m77-2.5c-9.613 9.625-18.132 17.5-18.93 17.5-.798 0-5.802-4.275-11.12-9.5-5.319-5.225-10.338-9.5-11.155-9.5-1.831 0-4.795 3.148-4.795 5.093C96 130.69 120.949 156 122.523 156c.547 0 10.646-9.659 22.442-21.465l21.449-21.466-2.382-2.534c-1.309-1.394-2.87-2.535-3.467-2.535-.598 0-8.952 7.875-18.565 17.5M.392 129c0 7.425.157 10.463.35 6.75.192-3.713.192-9.787 0-13.5-.193-3.713-.35-.675-.35 6.75"
        fill="#FFF" fill-rule="evenodd"/>
  <path fill-opacity=".441"
        d="M205.498 29.003c-.567.918-.418 1.066.502.497.866-.535 1.068-.418.595.345-.392.635-1.215 1.155-1.828 1.155-.614 0-4.331 3.118-8.262 6.929l-7.146 6.93 7.07 6.685c3.889 3.677 6.136 5.959 4.992 5.071-1.143-.888-2.632-1.615-3.309-1.615-.676 0-.998-.376-.713-.836.284-.46-2.502-3.11-6.191-5.889-8.147-6.137-18.426-12.006-17.696-10.104.309.806-2.161 3.993-5.993 7.734-3.585 3.501-6.519 6.729-6.519 7.175 0 .446-2.137.948-4.75 1.115-2.613.168 5.252.653 17.476 1.077 12.225.425 22.851 1.012 23.615 1.305.763.293 1.899 1.654 2.524 3.025 1.586 3.483 1.61 133.261.025 136.741-.611 1.34-2.207 2.936-3.547 3.547-1.708.778-22.303 1.11-68.834 1.11H61.112l-2.806-2.411-2.806-2.41-.546-17.34-.547-17.339-.203 17.309c-.151 12.786-.506 17.123-1.359 16.596-.721-.446-.882-.274-.43.457.398.644 1.255.866 1.904.494.65-.372.832-.293.405.176-.426.469 1.599 3.322 4.5 6.341l5.276 5.487-5.103-4.15c-2.806-2.282-7.259-6.674-9.896-9.76l-4.793-5.61-7.325 7.276c-4.028 4.002-7.12 7.481-6.869 7.731.25.25-.199.95-.999 1.554-1.203.91-.208 2.518 5.766 9.329 16.742 19.085 40.685 32.858 66.719 38.38 13.913 2.95 37.394 3.209 50 .551 27.129-5.721 49.127-17.751 67.823-37.092 42.449-43.91 47.826-110.548 13.014-161.266-5.39-7.852-21.162-24.477-22.806-24.04-.489.13-1.528-.619-2.308-1.664-1.103-1.48-1.597-1.612-2.225-.596M65.005 65.75c.003.412 17.441.901 38.75 1.085 21.31.184 39.133.707 39.608 1.163.475.456-8.971 10.53-20.99 22.388-12.097 11.933-21.859 22.353-21.864 23.337-.005.977.441 2.149.991 2.603.649.537.571 1.001-.224 1.325-.918.373-.823 1.11.376 2.941 1.354 2.066 1.371 2.354.114 1.872-2.242-.861-7.766 4.257-7.766 7.195 0 2.37 5.411 11.447 7.273 12.201.489.199-.384 1.69-1.94 3.314-2.32 2.422-2.47 2.837-.831 2.308 1.478-.477 1.283-.082-.752 1.52-1.513 1.191-2.75 2.772-2.75 3.514s-.934 1.646-2.075 2.008c-1.142.362-1.877.857-1.634 1.1.494.494-8.005 9.114-9.467 9.601-.513.171-1.045 1.076-1.182 2.01-.137.934-3.229 4.785-6.871 8.557l-6.621 6.858-.397-7.075c-.219-3.891-.49-19.65-.603-35.019-.113-15.37-.418-28.157-.678-28.417-.259-.26-.472 17.378-.472 39.194V191h126V65h-63c-34.65 0-62.998.338-62.995.75m117.432 4.5L179.5 73.5l3.25-2.937c1.787-1.615 3.25-3.078 3.25-3.25 0-.773-.825-.092-3.563 2.937M65.079 105.583c.048 1.165.285 1.402.604.605.289-.722.253-1.585-.079-1.917-.332-.332-.568.258-.525 1.312M141.527 125c-9.953 9.9-18.483 18-18.956 18-.474 0-5.475-4.54-11.114-10.09-9.173-9.026-10.472-9.972-12.332-8.977-2.94 1.573-4.412 4.67-3.241 6.817 1.976 3.626 24.857 25.25 26.718 25.25 2.319 0 43.398-40.782 43.398-43.084 0-1.634-3.983-5.916-5.503-5.916-.481 0-9.017 8.1-18.97 18m-16.249 7.25c-1.499 1.938-2.442 3.75-1.952 3.75.244 0 1.181-1.125 2.082-2.5 1.686-2.573 1.592-3.476-.13-1.25M119 138.378c0 .207.787.995 1.75 1.75 1.586 1.243 1.621 1.208.378-.378-1.307-1.666-2.128-2.195-2.128-1.372m-41 30.681c0 .582.45.781 1 .441s1-.816 1-1.059-.45-.441-1-.441-1 .477-1 1.059m-13 39.319c0 .207.787.995 1.75 1.75 1.586 1.243 1.621 1.208.378-.378-1.307-1.666-2.128-2.195-2.128-1.372"
        fill="#FFF" fill-rule="evenodd"/>
</svg>
